<svg xmlns="http://www.w3.org/2000/svg" viewBox="0 0 800 200" width="800" height="200">
  <defs>
    <linearGradient id="bg-grad" x1="0%" y1="0%" x2="100%" y2="100%">
      <stop offset="0%" stop-color="#0f0c29"/>
      <stop offset="50%" stop-color="#1a1a2e"/>
      <stop offset="100%" stop-color="#16213e"/>
    </linearGradient>
    <linearGradient id="honey-grad" x1="0%" y1="0%" x2="100%" y2="100%">
      <stop offset="0%" stop-color="#F5A623"/>
      <stop offset="100%" stop-color="#E8941A"/>
    </linearGradient>
    <linearGradient id="text-grad" x1="0%" y1="0%" x2="100%" y2="0%">
      <stop offset="0%" stop-color="#ffffff"/>
      <stop offset="100%" stop-color="#e0e0e0"/>
    </linearGradient>
    <filter id="glow-b">
      <feGaussianBlur stdDeviation="3" result="blur"/>
      <feMerge>
        <feMergeNode in="blur"/>
        <feMergeNode in="SourceGraphic"/>
      </feMerge>
    </filter>
  </defs>
  <!-- Background -->
  <rect width="800" height="200" rx="16" fill="url(#bg-grad)"/>
  <!-- Subtle grid -->
  <g opacity="0.05" stroke="#ffffff" stroke-width="0.5">
    <line x1="0" y1="40" x2="800" y2="40"/>
    <line x1="0" y1="80" x2="800" y2="80"/>
    <line x1="0" y1="120" x2="800" y2="120"/>
    <line x1="0" y1="160" x2="800" y2="160"/>
    <line x1="100" y1="0" x2="100" y2="200"/>
    <line x1="200" y1="0" x2="200" y2="200"/>
    <line x1="300" y1="0" x2="300" y2="200"/>
    <line x1="400" y1="0" x2="400" y2="200"/>
    <line x1="500" y1="0" x2="500" y2="200"/>
    <line x1="600" y1="0" x2="600" y2="200"/>
    <line x1="700" y1="0" x2="700" y2="200"/>
  </g>
  <!-- Honeycomb chip icon -->
  <g transform="translate(80, 100)">
    <!-- Chip body -->
    <rect x="-40" y="-40" width="80" height="80" rx="10" fill="#1a1a2e" stroke="#2d4059" stroke-width="2"/>
    <!-- Pins top -->
    <rect x="-22" y="-50" width="6" height="12" rx="1" fill="#4a6fa5"/>
    <rect x="-6" y="-50" width="6" height="12" rx="1" fill="#4a6fa5"/>
    <rect x="10" y="-50" width="6" height="12" rx="1" fill="#4a6fa5"/>
    <!-- Pins bottom -->
    <rect x="-22" y="38" width="6" height="12" rx="1" fill="#4a6fa5"/>
    <rect x="-6" y="38" width="6" height="12" rx="1" fill="#4a6fa5"/>
    <rect x="10" y="38" width="6" height="12" rx="1" fill="#4a6fa5"/>
    <!-- Pins left -->
    <rect x="-50" y="-18" width="12" height="6" rx="1" fill="#4a6fa5"/>
    <rect x="-50" y="-2" width="12" height="6" rx="1" fill="#4a6fa5"/>
    <rect x="-50" y="14" width="12" height="6" rx="1" fill="#4a6fa5"/>
    <!-- Pins right -->
    <rect x="38" y="-18" width="12" height="6" rx="1" fill="#4a6fa5"/>
    <rect x="38" y="-2" width="12" height="6" rx="1" fill="#4a6fa5"/>
    <rect x="38" y="14" width="12" height="6" rx="1" fill="#4a6fa5"/>
    <!-- Honeycomb hexagon -->
    <polygon points="0,-28 24,-14 24,14 0,28 -24,14 -24,-14" fill="url(#honey-grad)" filter="url(#glow-b)"/>
    <!-- Inner hex highlight -->
    <polygon points="0,-20 17,-10 17,10 0,20 -17,10 -17,-10" fill="none" stroke="#FFD180" stroke-width="1" opacity="0.5"/>
    <!-- Signal/antenna icon -->
    <circle cx="0" cy="2" r="3" fill="#1A1A1A"/>
    <path d="M-7,-6 A10,10 0 0,1 7,-6" stroke="#1A1A1A" stroke-width="2" fill="none"/>
    <path d="M-12,-10 A16,16 0 0,1 12,-10" stroke="#1A1A1A" stroke-width="2" fill="none"/>
    <!-- Corner dot -->
    <circle cx="-30" cy="-30" r="3" fill="#F5A623" opacity="0.8"/>
  </g>
  <!-- Title -->
  <text x="190" y="82" font-family="'Segoe UI', 'Helvetica Neue', Arial, sans-serif" font-size="48" font-weight="bold" fill="url(#text-grad)">Beehive<tspan fill="#F5A623">MQTT</tspan></text>
  <!-- Tagline -->
  <text x="190" y="117" font-family="'Segoe UI', 'Helvetica Neue', Arial, sans-serif" font-size="18" fill="#8892b0">The first native MQTT 3.1.1 broker for MicroPython</text>
  <!-- Stats pills -->
  <g transform="translate(190, 138)">
    <rect x="0" y="0" width="90" height="26" rx="13" fill="#F5A623" opacity="0.15"/>
    <text x="45" y="17" text-anchor="middle" font-family="'Segoe UI', Arial, sans-serif" font-size="12" fill="#F5A623" font-weight="600">MQTT 3.1.1</text>
    <rect x="102" y="0" width="95" height="26" rx="13" fill="#00d2ff" opacity="0.15"/>
    <text x="149" y="17" text-anchor="middle" font-family="'Segoe UI', Arial, sans-serif" font-size="12" fill="#00d2ff" font-weight="600">MicroPython</text>
    <rect x="209" y="0" width="80" height="26" rx="13" fill="#00c853" opacity="0.15"/>
    <text x="249" y="17" text-anchor="middle" font-family="'Segoe UI', Arial, sans-serif" font-size="12" fill="#00c853" font-weight="600">ESP32</text>
    <rect x="301" y="0" width="96" height="26" rx="13" fill="#b060e0" opacity="0.15"/>
    <text x="349" y="17" text-anchor="middle" font-family="'Segoe UI', Arial, sans-serif" font-size="12" fill="#b060e0" font-weight="600">QoS 0/1/2</text>
    <rect x="409" y="0" width="100" height="26" rx="13" fill="#ff9800" opacity="0.15"/>
    <text x="459" y="17" text-anchor="middle" font-family="'Segoe UI', Arial, sans-serif" font-size="12" fill="#ff9800" font-weight="600">Apache 2.0</text>
  </g>
</svg>
